PathFileType	4	(X/Y/Z)	RBDS024\RBDS024runT25.trc
DataRate	CameraRate	NumFrames	NumMarkers	Units	OrigDataRate	OrigDataStartFrame	OrigNumFrames
150.000000	150.000000	4	33	mm	150.000000	1125	4500
Frame#	Time	L.ASIS			L.Heel.Bottom			L.Heel.Lateral			L.Heel.Top			L.Iliac.Crest			L.MT1			L.MT5			L.PSIS			L.Shank.Bottom.Lateral			L.Shank.Bottom.Medial			L.Shank.Top.Lateral			L.Shank.Top.Medial			L.Thigh.Bottom.Lateral			L.Thigh.Bottom.Medial			L.Thigh.Top.Lateral			L.Thigh.Top.Medial			R.ASIS			R.ASY			R.Heel.Bottom			R.Heel.Lateral			R.Heel.Top			R.Iliac.Crest			R.MT1			R.MT5			R.PSIS			R.Shank.Bottom.Lateral			R.Shank.Bottom.Medial			R.Shank.Top.Lateral			R.Shank.Top.Medial			R.Thigh.Bottom.Lateral			R.Thigh.Bottom.Medial			R.Thigh.Top.Lateral			R.Thigh.Top.Medial			
		X1	Y1	Z1	X2	Y2	Z2	X3	Y3	Z3	X4	Y4	Z4	X5	Y5	Z5	X6	Y6	Z6	X7	Y7	Z7	X8	Y8	Z8	X9	Y9	Z9	X10	Y10	Z10	X11	Y11	Z11	X12	Y12	Z12	X13	Y13	Z13	X14	Y14	Z14	X15	Y15	Z15	X16	Y16	Z16	X17	Y17	Z17	X18	Y18	Z18	X19	Y19	Z19	X20	Y20	Z20	X21	Y21	Z21	X22	Y22	Z22	X23	Y23	Z23	X24	Y24	Z24	X25	Y25	Z25	X26	Y26	Z26	X27	Y27	Z27	X28	Y28	Z28	X29	Y29	Z29	X30	Y30	Z30	X31	Y31	Z31	X32	Y32	Z32	X33	Y33	Z33	

1126	7.500000000000001	2092.618551103926	961.5614241576048	910.4643109946026	1776.721247178662	300.952689744585	951.4284380466079	1805.165897691712	298.1012342881567	907.2942631529038	1815.32976821032	323.5760867320948	951.4600919250648	2008.107408392488	1035.555477692168	849.5888705233856	1933.580273621019	139.8705303452064	976.0643308760148	1901.263772108473	167.0564777107011	865.1214000205903	1906.974840078143	1004.934999149659	954.027580285726	1937.683255920971	335.3547155709369	890.8262744367026	1911.545960179901	371.6662582942798	916.0053790609699	1997.803184624135	387.1730545957672	873.3136058575163	1974.711580350336	426.1037545838676	900.6976728681074	2159.112229107011	623.1353109118862	844.0198826757908	2109.394322490706	589.8928325636796	882.7041156948674	2088.849563180081	706.7096294944871	829.2030592674619	2040.771127175214	675.4333433456846	866.2435464249396	2067.219544616431	959.3086542525721	1141.277369879468	1810.903018396297	86.67366814768705	1043.281583554764	1621.721124221363	90.52894905822869	1014.122554843317	1651.888906499858	95.57022665870554	1063.37615776	1641.26109085728	129.7715433546288	1020.131460997249	2009.169539834176	1030.480466187661	1181.991045505939	1831.964362112356	44.23472762668167	987.0102784062698	1794.451366024677	38.28056475227872	1100.867668318702	1902.528363506686	1006.634756816546	1057.764278952568	1740.577303485069	199.434648798969	1093.424115968026	1713.931526002752	229.8449884107934	1055.347783679697	1776.79097343329	267.5626314726645	1119.775455064318	1751.106025123462	295.9967347420686	1081.756765801023	1939.890765166637	587.0739535707875	1172.457070396332	1884.006133533228	592.2599599896662	1126.267983450024	1933.029808716193	695.2135594004468	1187.49548625501	1880.277295385084	700.0911008649945	1143.038742143616	
1127	7.506666666666667	2094.056352200414	968.9522623890682	911.149322424155	1790.206067777699	287.0246494711665	953.8261608513113	1818.409870451881	285.3962386191602	909.5129284157996	1827.623589921193	311.6197518665742	953.4330326921081	2009.57855558159	1042.701690803905	849.9837933677608	1955.517657449366	134.4643403139434	977.8366246373025	1920.856542643142	159.4271635893233	867.1582417670041	1908.382259078663	1011.31661223986	954.4948401227762	1948.938683902741	329.561200706554	892.1298760372803	1921.265042113252	364.5155755572331	917.653249144231	2006.368423033652	384.206648441313	874.2786007104716	1981.679353976079	421.9341484798591	901.9952122448401	2161.156031013141	630.5653927603627	843.5451217115068	2111.669208583383	597.2075180408768	882.4007047933831	2090.559025150034	713.8593503681669	828.7398564533702	2042.70496979581	682.4836728070857	865.975877206207	2069.005254921376	964.373152636295	1141.377325581742	1797.389015765303	87.74768075704092	1043.6467339873	1608.568989150935	99.0339543013459	1014.398259846087	1638.894278700879	102.7697404631124	1063.682358040473	1629.410692854701	137.5005265167738	1020.589702885414	2011.9540747399	1036.163065417201	1182.011162524675	1816.35916733046	44.6751982557268	987.0388264237073	1778.918378200907	39.44761355781753	1100.631190675658	1904.527282825677	1012.215481845	1058.503918607234	1727.759551102073	205.8636807942582	1093.181289544385	1701.77512065863	235.8365132317694	1054.364034724918	1763.726875279261	274.2579079441433	1119.198427621566	1738.642054615378	302.2482583518295	1080.513959656837	1931.77183936622	593.7098039098374	1171.479627394295	1876.703932946833	600.8922289344857	1124.648891466619	1928.334545310675	701.8903226832549	1186.65585392373	1876.061200851346	708.6673071878807	1141.753562628577	
1128	7.513333333333334	2095.444563359288	976.3451688480644	911.5920816406699	1804.389359133789	272.8909591683492	956.2089344514376	1832.31490745715	272.4463075560079	911.7389768120574	1840.507115093987	299.3710046171935	955.4095544000818	2010.902825248677	1049.830423391271	850.3318254348923	1977.694578559646	129.3437929559041	979.7126644095231	1940.899875856961	151.9046729909492	869.2727262289116	1909.869803321797	1017.669917833347	954.9746328926678	1960.455942500029	323.4597927634617	893.4787823344697	1931.290575453065	356.9846245464186	919.3105115605039	2015.012451499077	380.8260146166515	875.2595079133836	1988.756183925308	417.2817493626135	903.2818243643809	2162.76171490172	637.6701144651458	843.0469528203272	2113.450873325903	604.2803113709451	882.0716541045928	2091.97257895356	720.8123198557454	828.2596318362797	2044.302100510731	689.4218344676678	865.7000714628366	2071.02728954293	969.5593918137527	1141.32271065227	1784.281249417768	88.85460542777771	1044.131241358666	1596.119651341488	108.1237412946877	1014.799146576707	1626.529939346344	110.4255527352929	1064.118873101199	1618.355553466799	145.6949680547902	1021.205198391165	2014.887604933208	1042.105210340878	1181.899798460206	1801.088129571674	45.2528178642382	987.159663606243	1763.63808561837	40.77409509646166	1100.538234911312	1906.69293292253	1017.807253797719	1059.236334245514	1715.571779797526	212.6270935868662	1093.118594952245	1690.315382153952	242.1086686858071	1053.496061999731	1751.265478163078	281.3190575065494	1118.76079547589	1726.837502994352	308.803913085182	1079.355327132241	1924.115861703155	600.7122509367671	1170.713667598127	1869.929936561103	609.760834929687	1123.2214291814	1924.037325410831	708.8543015760259	1185.931739380329	1872.303442793996	717.4135621604069	1140.565510879034	
1129	7.52	2096.756000529425	983.6254235548448	911.7816207075687	1819.283600960883	258.6161597526262	958.5515064319635	1846.901220237713	259.3159776726051	913.9458835496877	1853.992983396739	286.8981867024328	957.3694474463043	2012.0408147401	1056.889521535143	850.6416596376355	2000.08820913696	124.5387922656445	981.6949927621207	1961.403230144023	144.5243884879255	871.4564960629536	1911.424514843588	1023.940034411439	955.4451612757146	1972.263236077566	317.0732480808419	894.858318503651	1941.653702348951	349.1050003790448	920.9483738913601	2023.774458509738	377.0365403234285	876.2396398000961	1995.977229601798	412.1596538169123	904.5232322144481	2163.972624978722	644.3988955857036	842.5408470980451	2114.774764614281	611.0414293520068	881.7128148646285	2093.117921000338	727.5027139138086	827.7765194594122	2045.577687192242	696.1606341453703	865.4013810061173	2073.254041099833	974.7848015551277	1141.114328903611	1771.585658899833	90.03134709648475	1044.769266924443	1584.44076989631	117.7526355585468	1015.331553290814	1614.835446252131	118.4932547942034	1064.694841166301	1608.142553709695	154.299611957761	1021.998060059542	2017.950957896554	1048.223094120232	1181.635738586384	1786.193588614278	46.02037675972965	987.402918351772	1748.611265989344	42.2878746471946	1100.603969338574	1908.99204575494	1023.362050828157	1059.933417009039	1704.070353972216	219.6490076658084	1093.275365682723	1679.596265195134	248.5911187704532	1052.801357169218	1739.483277885626	288.6625913902392	1118.495152013015	1715.752089853883	315.589593401834	1078.331544693919	1916.970244589545	607.9852310125411	1170.174358928867	1863.706446632156	618.7392784572942	1122.006688568993	1920.146287965103	716.0226330325154	1185.333415078333	1869.008557907035	726.2182576305598	1139.481399654596	
